# Blender 4.4.3
# www.blender.org
mtllib dirt_road1.mtl
o Cube
v -3.507921 -0.057486 -0.593532
v -3.507921 0.057486 -0.593532
v -3.075996 -0.057486 0.593532
v -3.075996 0.057486 0.593532
v 3.507921 -0.057486 -0.593532
v 3.507921 0.057486 -0.593532
v 3.507921 -0.057486 0.593532
v 3.507921 0.057486 0.593532
v -4.791068 -0.057486 -0.593532
v -4.791068 0.057486 -0.593532
v -4.359143 -0.057486 0.593532
v -4.359143 0.057486 0.593532
v -6.265418 -0.058967 0.161673
v -6.265418 0.058967 0.161673
v -5.822371 -0.058967 1.379302
v -5.822371 0.058967 1.379302
v -9.346964 -0.058967 0.892679
v -9.346964 0.058967 0.892679
v -8.903917 -0.058967 2.110309
v -8.903917 0.058967 2.110309
v -13.347728 -0.058967 2.348396
v -13.347728 0.058967 2.348396
v -12.904681 -0.058967 3.566026
v -12.904681 0.058967 3.566026
v -16.752447 -0.058967 4.826149
v -16.752447 0.058967 4.826149
v -16.309401 -0.058967 6.043779
v -16.309401 0.058967 6.043779
v -19.129379 -0.058967 5.691020
v -19.129379 0.058967 5.691020
v -18.686333 -0.058967 6.908649
v -18.686333 0.058967 6.908649
v -25.277485 -0.058967 7.170897
v -25.277485 0.058967 7.170897
v -24.834438 -0.058967 8.388526
v -24.834438 0.058967 8.388526
v -28.995268 -0.058967 7.811885
v -28.995268 0.058967 7.811885
v -28.552221 -0.058967 9.029514
v -28.552221 0.058967 9.029514
v -32.195518 -0.058967 8.976326
v -32.195518 0.058967 8.976326
v -31.752472 -0.058967 10.193956
v -31.752472 0.058967 10.193956
v -36.359161 -0.058967 10.491309
v -36.359161 0.058967 10.491309
v -35.916115 -0.058967 11.708939
v -34.389908 0.058967 11.708939
v -37.990234 -0.058967 11.084791
v -37.990234 0.058967 11.084791
v -37.547188 -0.058967 12.302421
v -36.020985 0.058967 12.302421
v -36.651474 -0.058967 12.891270
v -35.125267 0.058967 12.891270
v -38.282547 -0.058967 13.484752
v -36.756344 0.058967 13.484752
v -37.712887 -0.058967 14.201021
v -37.712887 0.058967 14.201021
v -39.343960 -0.058967 14.794504
v -39.343960 0.058967 14.794504
v -35.916115 0.058967 11.708939
v -36.359161 0.058967 10.491309
v -37.547188 0.058967 12.302421
v -37.990234 0.058967 11.084791
v -39.178772 -0.058967 5.377827
v -39.178772 0.058967 5.377827
v -40.809845 -0.058967 5.971309
v -40.809845 0.058967 5.971309
v -39.543018 -0.058967 17.705093
v -39.543018 0.058967 17.705093
v -41.174091 -0.058967 18.298576
v -41.174091 0.058967 18.298576
v -36.652721 -0.050888 12.889530
v -35.126518 0.067046 12.889530
v -37.714134 -0.050888 14.199283
v -37.714134 0.067046 14.199283
v -37.444420 -0.058967 23.472687
v -37.444420 0.058967 23.472687
v -39.075497 -0.058967 24.066170
v -39.075497 0.058967 24.066170
v -46.010559 -0.058967 -13.398034
v -46.010559 0.058967 -13.398034
v -47.641632 -0.058967 -12.804551
v -47.641632 0.058967 -12.804551
v -56.995075 -0.058967 -21.777441
v -56.995075 0.058967 -21.777441
v -58.626152 -0.058967 -21.183958
v -58.626152 0.058967 -21.183958
v -59.938297 -0.058967 -27.453285
v -59.938297 0.058967 -27.453285
v -61.569374 -0.058967 -26.859802
v -61.569374 0.058967 -26.859802
v -81.870010 -0.058967 -51.830875
v -81.870010 0.058967 -51.830875
v -83.501091 -0.058967 -51.237396
v -83.501091 0.058967 -51.237396
v -36.944466 -0.058967 38.132420
v -36.944466 0.058967 38.132420
v -38.575542 -0.058967 38.725895
v -38.575542 0.058967 38.725895
vn -0.0000 -1.0000 -0.0000
vn -0.0000 -0.0000 1.0000
vn 1.0000 -0.0000 -0.0000
vn -0.0000 1.0000 -0.0000
vn -0.0000 -0.0000 -1.0000
vn 0.0008 -1.0000 -0.0003
vn -0.4559 -0.0000 -0.8900
vn 0.0008 1.0000 -0.0003
vn 0.4731 -0.0000 0.8810
vn -0.2308 -0.0000 -0.9730
vn 0.2308 -0.0000 0.9730
vn 0.3419 -0.0000 0.9397
vn -0.3419 -0.0000 -0.9397
vn -0.5884 -0.0000 -0.8086
vn 0.5884 -0.0000 0.8086
vn 0.2340 -0.0000 0.9722
vn -0.2340 -0.0000 -0.9722
vn -0.1699 -0.0000 -0.9855
vn 0.1699 -0.0000 0.9855
vn 0.1445 -0.9349 0.3243
vn -0.1510 0.9771 0.1496
vn -0.0770 0.9959 -0.0479
vn 0.0770 -0.9959 0.0479
vn 0.8122 -0.0000 -0.5834
vn -0.1494 0.9666 -0.2081
vn 0.8757 -0.0000 -0.4829
vn -0.8757 -0.0000 0.4829
vn 0.9397 -0.0000 -0.3419
vn 0.8864 -0.0000 0.4629
vn -0.8864 -0.0000 -0.4629
vn 0.1494 -0.9666 0.2081
vn -0.0161 0.2079 0.9780
vn -0.4369 -0.2533 -0.8631
vn 0.7527 0.2475 0.6100
vn -0.9397 -0.0000 0.3419
vn -0.8877 -0.0000 0.4603
vn -0.6065 -0.0000 0.7951
vn 0.6065 -0.0000 -0.7951
vn 0.8877 -0.0000 -0.4603
vn 0.7434 -0.0000 -0.6688
vn -0.7434 -0.0000 0.6688
vn 0.9994 -0.0000 -0.0341
vn -0.9994 -0.0000 0.0341
vt 0.625000 0.500000
vt 0.875000 0.500000
vt 0.875000 0.750000
vt 0.625000 0.750000
vt 0.375000 0.750000
vt 0.625000 1.000000
vt 0.375000 1.000000
vt 0.375000 0.000000
vt 0.625000 0.000000
vt 0.625000 0.250000
vt 0.375000 0.250000
vt 0.125000 0.500000
vt 0.375000 0.500000
vt 0.125000 0.750000
s 0
usemtl Material
f 1/1/1 5/2/1 7/3/1 3/4/1
f 4/5/2 3/4/2 7/6/2 8/7/2
f 8/8/3 7/9/3 5/10/3 6/11/3
f 6/12/4 2/13/4 4/5/4 8/14/4
f 3/4/2 4/5/2 12/5/2 11/4/2
f 6/11/5 5/10/5 1/1/5 2/13/5
f 9/1/6 11/4/6 15/4/6 13/1/6
f 2/13/5 1/1/5 9/1/5 10/13/5
f 4/5/4 2/13/4 10/13/4 12/5/4
f 1/1/1 3/4/1 11/4/1 9/1/1
f 13/1/1 15/4/1 19/4/1 17/1/1
f 10/13/7 9/1/7 13/1/7 14/13/7
f 12/5/8 10/13/8 14/13/8 16/5/8
f 11/4/9 12/5/9 16/5/9 15/4/9
f 20/5/4 18/13/4 22/13/4 24/5/4
f 14/13/10 13/1/10 17/1/10 18/13/10
f 16/5/4 14/13/4 18/13/4 20/5/4
f 15/4/11 16/5/11 20/5/11 19/4/11
f 21/1/1 23/4/1 27/4/1 25/1/1
f 19/4/12 20/5/12 24/5/12 23/4/12
f 17/1/1 19/4/1 23/4/1 21/1/1
f 18/13/13 17/1/13 21/1/13 22/13/13
f 26/13/13 25/1/13 29/1/13 30/13/13
f 22/13/14 21/1/14 25/1/14 26/13/14
f 24/5/4 22/13/4 26/13/4 28/5/4
f 23/4/15 24/5/15 28/5/15 27/4/15
f 32/5/4 30/13/4 34/13/4 36/5/4
f 28/5/4 26/13/4 30/13/4 32/5/4
f 27/4/12 28/5/12 32/5/12 31/4/12
f 25/1/1 27/4/1 31/4/1 29/1/1
f 33/1/1 35/4/1 39/4/1 37/1/1
f 31/4/16 32/5/16 36/5/16 35/4/16
f 29/1/1 31/4/1 35/4/1 33/1/1
f 30/13/17 29/1/17 33/1/17 34/13/17
f 40/5/4 38/13/4 42/13/4 44/5/4
f 34/13/18 33/1/18 37/1/18 38/13/18
f 36/5/4 34/13/4 38/13/4 40/5/4
f 35/4/19 36/5/19 40/5/19 39/4/19
f 43/4/20 44/5/20 48/5/20 47/4/20
f 39/4/12 40/5/12 44/5/12 43/4/12
f 37/1/1 39/4/1 43/4/1 41/1/1
f 38/13/13 37/1/13 41/1/13 42/13/13
f 45/1/1 47/4/1 51/4/1 49/1/1
f 41/1/1 43/4/1 47/4/1 45/1/1
f 42/13/13 41/1/13 45/1/13 46/13/13
f 44/5/4 42/13/4 46/13/4 48/5/4
f 50/13/21 49/1/21 51/4/21 52/5/21
f 45/1/1 49/1/1 67/1/1 65/1/1
f 52/5/4 48/5/4 61/5/4 63/5/4
f 48/5/4 52/5/4 56/5/4 54/5/4
f 55/4/1 53/4/1 57/4/1 59/4/1
f 52/5/22 51/4/22 55/4/22 56/5/22
f 47/4/23 48/5/23 54/5/23 53/4/23
f 51/4/1 47/4/1 53/4/1 55/4/1
f 59/4/1 57/4/1 69/4/1 71/4/1
f 58/5/24 57/4/24 75/4/24 76/5/24
f 54/5/4 56/5/4 60/5/4 58/5/4
f 56/5/25 55/4/25 59/4/25 60/5/25
f 61/5/4 62/13/4 64/13/4 63/5/4
f 50/13/1 52/5/1 63/5/1 64/13/1
f 48/5/4 46/13/4 62/13/4 61/5/4
f 46/13/1 50/13/1 64/13/1 62/13/1
f 65/1/1 67/1/1 83/1/1 81/1/1
f 46/13/26 45/1/26 65/1/26 66/13/26
f 50/13/4 46/13/4 66/13/4 68/13/4
f 49/1/27 50/13/27 68/13/27 67/1/27
f 69/4/28 70/5/28 78/5/28 77/4/28
f 57/4/29 58/5/29 70/5/29 69/4/29
f 58/5/4 60/5/4 72/5/4 70/5/4
f 60/5/30 59/4/30 71/4/30 72/5/30
f 73/4/31 74/5/31 76/5/31 75/4/31
f 53/4/32 54/5/32 74/5/32 73/4/32
f 54/5/33 58/5/33 76/5/33 74/5/33
f 57/4/34 53/4/34 73/4/34 75/4/34
f 79/4/1 77/4/1 97/4/1 99/4/1
f 70/5/4 72/5/4 80/5/4 78/5/4
f 72/5/35 71/4/35 79/4/35 80/5/35
f 71/4/1 69/4/1 77/4/1 79/4/1
f 84/13/4 82/13/4 86/13/4 88/13/4
f 66/13/28 65/1/28 81/1/28 82/13/28
f 68/13/4 66/13/4 82/13/4 84/13/4
f 67/1/35 68/13/35 84/13/35 83/1/35
f 87/1/36 88/13/36 92/13/36 91/1/36
f 83/1/37 84/13/37 88/13/37 87/1/37
f 81/1/1 83/1/1 87/1/1 85/1/1
f 82/13/38 81/1/38 85/1/38 86/13/38
f 89/1/1 91/1/1 95/1/1 93/1/1
f 85/1/1 87/1/1 91/1/1 89/1/1
f 86/13/39 85/1/39 89/1/39 90/13/39
f 88/13/4 86/13/4 90/13/4 92/13/4
f 94/13/13 93/1/13 95/1/13 96/13/13
f 90/13/40 89/1/40 93/1/40 94/13/40
f 92/13/4 90/13/4 94/13/4 96/13/4
f 91/1/41 92/13/41 96/13/41 95/1/41
f 97/4/12 98/5/12 100/5/12 99/4/12
f 77/4/42 78/5/42 98/5/42 97/4/42
f 78/5/4 80/5/4 100/5/4 98/5/4
f 80/5/43 79/4/43 99/4/43 100/5/43
